inDegrees=yes
name=ik_S50_A11_T02
DataType=double
version=3
OpenSimVersion=4.3-2021-08-27-4bc7ad9
endheader
time	pelvis_tilt	pelvis_list	pelvis_rotation	pelvis_tx	pelvis_ty	pelvis_tz	hip_flexion_r	hip_adduction_r	hip_rotation_r	knee_angle_r	knee_angle_r_beta	ankle_angle_r	subtalar_angle_r	mtp_angle_r	hip_flexion_l	hip_adduction_l	hip_rotation_l	knee_angle_l	knee_angle_l_beta	ankle_angle_l	subtalar_angle_l	mtp_angle_l	lumbar_extension	lumbar_bending	lumbar_rotation	arm_flex_r	arm_add_r	arm_rot_r	elbow_flex_r	pro_sup_r	wrist_flex_r	wrist_dev_r	arm_flex_l	arm_add_l	arm_rot_l	elbow_flex_l	pro_sup_l	wrist_flex_l	wrist_dev_l
5.299999999999975	2.919588553002536	-2.214708056276699	36.60083221969319	0	0.9399999999999999	0	24.09627341753022	-8.876164557785815	-7.612945988171745	26.25122361803727	0.4581702848120486	0	0	0	24.09627341753022	-8.876164557785815	-7.612945988171745	26.25122361803727	0.4581702848120486	0	0	0	2.695329633651361	3.345571753344613	9.372301615069857	57.43873069025221	-10.56263829280115	8.529785430945966	97.25995469733209	-5.857832247373515	0	0	4.594564131327979	-9.042942418846401	-9.12138485970954	5.607238047544824	126.8017991794363	0	0
5.319999999999975	2.951037306947212	-2.209205570997181	36.75194039546702	0	0.9399999999999999	0	24.12472128920902	-8.881106632998122	-7.619687186966888	26.28114975880361	0.4586925945008365	0	0	0	24.12472128920902	-8.881106632998122	-7.619687186966888	26.28114975880361	0.4586925945008365	0	0	0	2.718647077407662	3.325314718419643	9.277308380071403	59.12518998033224	-10.72100006433031	8.33866890390928	99.54497261672081	-9.218956231545238	0	0	4.567790093252587	-9.081942078073082	-9.061200611424718	5.556473663998274	126.6971499946007	0	0
5.339999999999974	2.968115686702528	-2.20944115483164	36.80591688429952	0	0.9399999999999999	0	24.12669219868113	-8.881444124675946	-7.62015021465101	26.28324555821282	0.4587291731009887	0	0	0	24.12669219868113	-8.881444124675946	-7.62015021465101	26.28324555821282	0.4587291731009887	0	0	0	2.732357900157067	3.314693861347366	9.286460090554666	59.09889854786134	-10.77663111815696	8.285826949843184	99.53359517451069	-9.216516846568334	0	0	4.534950063061894	-9.129253823538164	-9.187505084204883	5.549287789066979	126.7185192696848	0	0
5.359999999999974	3.005118736719282	-2.199723853006269	36.91632172029156	0	0.9399999999999999	0	24.1472420087478	-8.885001286652777	-7.625011166076721	26.30488346001309	0.4591068257306266	0	0	0	24.1472420087478	-8.885001286652777	-7.625011166076721	26.30488346001309	0.4591068257306266	0	0	0	2.764835687503171	3.293653221016748	9.204427030844677	60.53443864598215	-10.18952648825059	8.538996627947199	97.95999600228465	-9.21633141459583	0	0	4.48021062784522	-9.163918326681781	-9.165267559143267	5.539945275062317	126.6974360264387	0	0
5.379999999999973	3.050338284788245	-2.184541008632077	37.10449837550132	0	0.9399999999999999	0	24.16076717104243	-8.887336901114022	-7.628206671109863	26.31913413408476	0.4593555469138058	0	0	0	24.16076717104243	-8.887336901114022	-7.628206671109863	26.31913413408476	0.4593555469138058	0	0	0	2.802743527830235	3.275496021238777	9.058762197627072	61.94280007575589	-9.564912974416178	7.946945209321966	100.2732837520409	-9.894762614315304	0	0	4.409749528161296	-9.223590491055846	-9.327083162821944	5.556154674455978	126.9092532167265	0	0
5.399999999999973	3.082834340869572	-2.174993638216051	37.24434316366974	0	0.9399999999999999	0	24.16921972306615	-8.88879203602699	-7.630200267738948	26.32805526789055	0.4595112500717278	0	0	0	24.16921972306615	-8.88879203602699	-7.630200267738948	26.32805526789055	0.4595112500717278	0	0	0	2.829943668156701	3.258919288985076	8.938440831914733	63.32295771378925	-8.83792983933939	7.947964481425553	100.0016781830874	-9.923250472243176	0	0	4.367041185315164	-9.26589597670525	-9.391363030130714	5.561097629033371	126.8944448656208	0	0
5.419999999999972	3.103373745606463	-2.173963850917093	37.38313155973759	0	0.9399999999999999	0	24.17816987193162	-8.890331654057508	-7.632310538675443	26.33750105219594	0.45967611010829	0	0	0	24.17816987193162	-8.890331654057508	-7.632310538675443	26.33750105219594	0.45967611010829	0	0	0	2.842109414138703	3.242794176896937	8.812057975039098	64.72727676433865	-8.109260365957326	8.009237151184408	99.61628360935161	-9.936736019612514	0	0	4.348462003495118	-9.294675528392856	-9.433969544979497	5.54491876373913	126.8852647569334	0	0
5.439999999999972	3.135255188910938	-2.174072450849135	37.52141211586737	0	0.9399999999999999	0	24.19283770881552	-8.892857953801004	-7.635772257167915	26.35295048496666	0.4599457535777046	0	0	0	24.19283770881552	-8.892857953801004	-7.635772257167915	26.35295048496666	0.4599457535777046	0	0	0	2.862607483530131	3.218071613397177	8.698260123494144	66.04753747772841	-7.398712533622592	8.014930502480775	99.19238896998809	-9.94568569377849	0	0	4.32879923318681	-9.300540986387604	-9.429827718907273	5.540317002900833	126.8607621022675	0	0
5.459999999999972	3.189525722362317	-2.189549881525013	37.74767640135317	0	0.9399999999999999	0	24.20458404082161	-8.894875100110994	-7.638540076519424	26.36533965241337	0.4601619853412306	0	0	0	24.20458404082161	-8.894875100110994	-7.638540076519424	26.36533965241337	0.4601619853412306	0	0	0	2.88712572030669	3.169918356216805	8.503622370548337	68.54382914988634	-6.181989560611203	8.217213890868228	97.50483295654972	-9.953190531768982	0	0	4.288854739121683	-9.382896114267574	-9.395214376048637	5.524456974183255	126.8118896013491	0	0
5.479999999999971	3.217611285341053	-2.202305569826275	37.8702282080222	0	0.9399999999999999	0	24.21296962579629	-8.896312438040185	-7.640514048090634	26.37419099451107	0.4603164704040559	0	0	0	24.21296962579629	-8.896312438040185	-7.640514048090634	26.37419099451107	0.4603164704040559	0	0	0	2.897453386702462	3.138457684998764	8.397244288295196	69.69277583841172	-5.570804308762713	8.215795154945644	97.33087168957688	-9.958873909368231	0	0	4.290672296533076	-9.414527196166363	-9.41905343215314	5.54261192122746	126.7938392264097	0	0
5.499999999999971	3.236679326531007	-2.203716727135037	37.98247868195708	0	0.9399999999999999	0	24.21851601020695	-8.897259114330973	-7.641816448775383	26.3800623548946	0.4604189449743196	0	0	0	24.21851601020695	-8.897259114330973	-7.641816448775383	26.3800623548946	0.4604189449743196	0	0	0	2.907464013037032	3.121917339907952	8.281833561333036	70.78365322435512	-4.974963474981542	8.174171307452271	97.69096004858058	-9.96422750302259	0	-5.38806921148701e-36	4.27231760904393	-9.429010367084796	-9.420798168042779	5.555375512130827	126.7332333387271	0	-5.38806921148701e-36
5.51999999999997	3.261744663571673	-2.215722812982987	38.08711184836935	0	0.9399999999999999	0	24.22402915955512	-8.898200760468594	-7.643111701573234	26.38589282708054	0.4605207059109102	0	0	0	24.22402915955512	-8.898200760468594	-7.643111701573234	26.38589282708054	0.4605207059109102	0	0	0	2.916211195665084	3.09295998150341	8.176273795666528	71.76066019842182	-4.425383397540402	8.243447635437928	97.64498600481271	-9.967307613997358	0	0	4.274262133582988	-9.416705887865174	-9.524179805451428	5.566980987230391	126.7001176675042	0	0
